<svg width="40" height="40" viewBox="0 0 40 40" fill="none" xmlns="http://www.w3.org/2000/svg">
<path d="M7.83876 0C3.5276 0 0 3.5276 0 7.83876V32.1663C0 36.4774 3.5276 40.005 7.83876 40.005H32.1663C36.4774 40.005 40.005 36.4774 40.005 32.1663V7.83876C40.005 3.5276 36.4774 0 32.1663 0H7.83876ZM12.3263 9.02624H20.2175C21.8564 9.02624 23.1013 9.0862 23.9463 9.215C24.7913 9.33736 25.585 9.59964 26.3225 9.99876C27.1206 10.4287 27.7202 11.0077 28.115 11.725C28.5098 12.4465 28.71 13.2758 28.71 14.2188C28.71 15.3085 28.4381 16.2772 27.89 17.1275C27.3472 17.9778 26.5941 18.6031 25.6363 19.0075V19.1238C27.0144 19.4164 28.1198 20.0052 28.9488 20.9013C29.7791 21.7984 30.1938 23.006 30.1938 24.5225C30.1938 25.6325 29.9842 26.6116 29.5638 27.4513C29.1435 28.291 28.5807 28.9829 27.8688 29.5363C27.0291 30.1961 26.1075 30.6618 25.0976 30.9438C24.094 31.2248 22.8192 31.365 21.2676 31.365H12.3263V9.02628L12.3263 9.02624ZM17.9075 13.1212V17.8488H18.6138C19.5716 17.8488 20.2483 17.8389 20.6325 17.8188C21.0167 17.7986 21.4166 17.6957 21.8263 17.5062C22.2711 17.2966 22.5844 17.0055 22.7525 16.6362C22.9217 16.2627 23.0088 15.8313 23.0088 15.345C23.0088 14.9821 22.9164 14.6126 22.7312 14.2338C22.5471 13.8549 22.2611 13.578 21.8662 13.4088C21.498 13.2449 21.0626 13.1585 20.555 13.1425C20.0484 13.1265 19.2957 13.1213 18.2975 13.1213H17.9075L17.9075 13.1212ZM17.9075 21.675V27.2675H18.21C19.6702 27.2675 20.6786 27.2565 21.2363 27.2363C21.7939 27.2161 22.3684 27.0837 22.9463 26.8325C23.4592 26.6122 23.8275 26.2894 24.0638 25.8638C24.299 25.4391 24.4163 24.9574 24.4163 24.42C24.4163 23.7282 24.2796 23.1908 23.9976 22.8012C23.7166 22.4075 23.2963 22.1151 22.7376 21.915C22.3991 21.782 21.9276 21.7099 21.3338 21.695C20.74 21.6801 19.9418 21.675 18.9426 21.675H17.9076H17.9075Z" fill="black"/>
</svg>
