<svg width="40" height="40" viewBox="0 0 40 40" fill="none" xmlns="http://www.w3.org/2000/svg">
<path d="M29.9742 0.0439453H10.0255C4.52955 0.0439453 0.0581055 4.50034 0.0581055 9.97787V30.0223C0.0581055 35.4994 4.52955 39.9563 10.0255 39.9563H29.9742C35.4702 39.9563 39.9415 35.4994 39.9415 30.0223V9.97783C39.9415 4.50035 35.4702 0.0439453 29.9742 0.0439453ZM36.25 30.0222C36.25 33.4707 33.4348 36.2769 29.9742 36.2769H10.0256C6.56503 36.2769 3.74979 33.4707 3.74979 30.0222V17.0763H11.6356C11.0599 18.294 10.7361 19.6524 10.7361 21.085C10.7361 26.2883 14.9833 30.5209 20.2039 30.5209C25.4245 30.5209 29.6717 26.2883 29.6717 21.085C29.6717 19.6524 29.348 18.2939 28.7721 17.0763H36.2499V30.0222H36.25ZM16.2736 21.0851C16.2736 18.9255 18.0367 17.1681 20.204 17.1681C22.3713 17.1681 24.1343 18.9255 24.1343 21.0851C24.1343 23.2451 22.3713 25.0021 20.204 25.0021C18.0367 25.0021 16.2736 23.2451 16.2736 21.0851ZM36.25 13.3971H25.683C24.135 12.2984 22.2449 11.6493 20.204 11.6493C18.1631 11.6493 16.2727 12.2984 14.7251 13.3971H3.74979V9.97787C3.74979 6.52894 6.56503 3.72319 10.0256 3.72319H29.9742C33.4348 3.72319 36.25 6.52894 36.25 9.97787V13.3971ZM32.2497 5.95458H28.8277C28.2185 5.95458 27.7203 6.45131 27.7203 7.05835V10.469C27.7203 11.076 28.2184 11.5727 28.8277 11.5727H32.2497C32.859 11.5727 33.3572 11.076 33.3572 10.469V7.05835C33.3572 6.45131 32.859 5.95458 32.2497 5.95458Z" fill="black"/>
</svg>
